<svg width="106" height="28" viewBox="0 0 106 28" fill="none" xmlns="http://www.w3.org/2000/svg">
<path d="M22.5142 17.8407L22.9782 18.7266L22.9885 18.7211C23.5549 18.4159 24.0166 18.0636 24.3103 17.5801C24.6131 17.0818 24.6554 16.5773 24.6554 16.1678V3.08523C24.6554 2.34411 25.2715 1.72778 26.0123 1.72778C26.7327 1.72778 27.3703 2.32419 27.3703 3.16196V18.7975C27.3422 19.1904 27.2132 19.4238 27.0359 19.6164C26.8226 19.8481 26.5197 20.0441 26.0645 20.3104L14.2204 26.3779L2.2383 20.3146C1.75257 20.0143 1.44831 19.8026 1.25027 19.5805C1.08847 19.399 1 19.2138 1 18.9059V3.16076C1 2.36509 1.5961 1.80271 2.35805 1.80271C3.12 1.80271 3.7161 2.36509 3.7161 3.16076V16.2433C3.7161 16.6585 3.75996 17.1491 4.0696 17.6408C4.35584 18.0953 4.80117 18.4404 5.3322 18.7676L5.378 18.7958L5.42643 18.8189L5.42645 18.8189L5.42648 18.8189L5.42657 18.819L5.42693 18.8192L5.42974 18.8205L5.44302 18.8269L5.50243 18.8556C5.55749 18.8822 5.6445 18.9246 5.77034 18.9864C6.02205 19.1099 6.42865 19.3109 7.04492 19.619C8.27755 20.2354 10.3475 21.2798 13.6925 22.9899L14.1452 23.2213L14.5989 22.9919C17.9843 21.2805 20.0774 20.215 21.3246 19.5772C21.9483 19.2583 22.3607 19.0461 22.6175 18.9135C22.746 18.8472 22.8356 18.8007 22.8934 18.7707L22.957 18.7376L22.9726 18.7295L22.9766 18.7274L22.9777 18.7268L22.978 18.7266L22.9781 18.7266L22.5142 17.8407ZM93.6193 20.2098V25.2084H89.2302V20.2098H93.6193Z" fill="#130F26" stroke="#130F26" stroke-width="2"/>
<path d="M79.3386 7.6237C78.8536 7.88559 78.5557 8.08276 78.3778 8.27725C78.2427 8.42498 78.1829 8.55979 78.1998 8.79577L78.2023 8.83137V8.86706V24.6104C78.2023 25.3213 78.7121 25.8159 79.3326 25.8162L79.3386 7.6237ZM79.3386 7.6237L91.2745 1.6194L103.195 7.6158C103.637 7.8753 103.926 8.07219 104.113 8.27707C104.269 8.44737 104.345 8.61227 104.345 8.86706V24.6104C104.345 24.9303 104.218 25.237 103.992 25.4632C103.766 25.6894 103.459 25.8166 103.139 25.8168L79.3386 7.6237ZM98.8687 7.959V7.74701L100.399 8.70291C101.095 9.13818 101.588 9.60956 101.831 10.2523C102.02 10.7525 102.015 11.2912 102.011 11.683C102.01 11.7358 102.01 11.7859 102.01 11.8329V24.611C102.01 25.2989 102.572 25.8164 103.139 25.8168L98.8687 7.959ZM98.8687 7.959C98.0966 7.57222 97.1 7.067 96.1014 6.55867C95.0471 6.02198 93.9926 5.48282 93.2016 5.07776C92.8061 4.87525 92.4765 4.70629 92.2459 4.58798L91.9782 4.45063L91.9077 4.41445L91.8896 4.40519L91.8851 4.40285L91.8839 4.40226L91.8837 4.40212C91.8836 4.40209 91.8836 4.40207 91.4267 5.29162M98.8687 7.959L79.3328 25.8162C79.6524 25.816 79.9589 25.6888 80.1848 25.4628C80.4103 25.2372 80.5372 24.9315 80.5378 24.6127C80.5378 24.6119 80.5378 24.6111 80.5378 24.6104L80.4629 11.9149L80.4628 11.909C80.4629 11.316 80.5225 10.7042 80.8636 10.1149C81.1952 9.54191 81.7218 9.113 82.3772 8.70314L83.9074 7.74607V7.96557C84.6889 7.57773 85.7018 7.06894 86.7167 6.55701C87.7807 6.02031 88.8448 5.48114 89.6431 5.07608C90.0422 4.87357 90.3748 4.70461 90.6076 4.5863L90.8777 4.44895L90.9488 4.41277L90.9671 4.40351L90.9717 4.40117L90.9728 4.40058L90.9731 4.40044C90.9731 4.4004 90.9732 4.40039 91.4267 5.29162M91.4267 5.29162L91.8836 4.40207L91.4288 4.16852L90.9732 4.40039L91.4267 5.29162ZM60.7081 3.911V4.911V24.6104C60.7081 25.2753 61.2493 25.8162 61.9139 25.8162C62.5345 25.8162 63.0448 25.3217 63.0448 24.6104V4.911V3.911H64.0448H72.5629C73.1516 3.911 73.6923 3.37019 73.6926 2.78182L60.7081 3.911ZM60.7081 3.911H59.7081M60.7081 3.911H59.7081M59.7081 3.911H51.19C50.5483 3.911 50.0604 3.39333 50.0604 2.78133C50.0604 2.07006 50.5706 1.57552 51.19 1.57552H72.5629M59.7081 3.911L72.5629 1.57552M72.5629 1.57552C73.1288 1.57552 73.6922 2.09293 73.6926 2.78169L72.5629 1.57552ZM42.4585 2.00517C42.6845 2.23123 42.8117 2.53775 42.812 2.85745C42.812 2.85751 42.812 2.85758 42.812 2.85765C42.812 2.85776 42.812 2.85788 42.812 2.85799L42.812 24.597C42.8022 24.9083 42.6723 25.204 42.4492 25.4219C42.2239 25.6421 41.9213 25.7653 41.6062 25.7653C41.2911 25.7653 40.9885 25.6421 40.7631 25.4219C40.5401 25.204 40.4102 24.9083 40.4004 24.597V2.8578C40.4006 2.53798 40.5278 2.23132 40.7539 2.00517C40.98 1.7791 41.2865 1.65197 41.6062 1.65165C41.9259 1.65197 42.2324 1.7791 42.4585 2.00517Z" fill="#130F26" stroke="#130F26" stroke-width="2"/>
</svg>
