<svg width="78" height="20" viewBox="0 0 78 20" fill="none" xmlns="http://www.w3.org/2000/svg">
<path d="M17.515 1.91397V11.6006C17.515 12.107 17.4023 12.4447 16.67 12.8393C16.67 12.8393 15.4873 13.4589 10.4753 15.9926C5.51925 13.4589 4.33649 12.8952 4.33649 12.8952C3.60464 12.4443 3.49191 12.1629 3.49191 11.6565V1.96989C3.49191 0.956223 2.70326 0.223934 1.74596 0.223934C0.788654 0.223934 0 0.956223 0 1.96989V13.6279C0 14.4721 0.563197 14.8666 1.29504 15.3175L10.5312 19.9913L19.6547 15.3175C20.3306 14.923 20.9497 14.5289 21.0061 13.5716V1.97078C21.0061 0.95711 20.2179 0.168457 19.2601 0.168457C18.3024 0.168457 17.515 0.956667 17.515 1.91397ZM70.0584 18.8095C70.0584 18.9222 69.9457 19.0349 69.8329 19.0349H65.5532C65.4405 19.0349 65.3278 18.9222 65.3278 18.8095V14.0784C65.3278 13.9657 65.4405 13.853 65.5532 13.853H69.8329C69.9457 13.853 70.0584 13.9657 70.0584 14.0784V18.8095Z" fill="#130F26"/>
<path d="M17.515 1.91397V11.6006C17.515 12.107 17.4023 12.4447 16.67 12.8393C16.67 12.8393 15.4873 13.4589 10.4753 15.9926C5.51925 13.4589 4.33649 12.8952 4.33649 12.8952C3.60464 12.4443 3.49191 12.1629 3.49191 11.6565V1.96989C3.49191 0.956223 2.70326 0.223934 1.74596 0.223934C0.788654 0.223934 0 0.956223 0 1.96989V13.6279C0 14.4721 0.563197 14.8666 1.29504 15.3175L10.5312 19.9913L19.6547 15.3175C20.3306 14.923 20.9497 14.5289 21.0061 13.5716V1.97078C21.0061 0.95711 20.2179 0.168457 19.2601 0.168457C18.3024 0.168457 17.515 0.956667 17.515 1.91397ZM70.0584 18.8095C70.0584 18.9222 69.9457 19.0349 69.8329 19.0349H65.5532C65.4405 19.0349 65.3278 18.9222 65.3278 18.8095V14.0784C65.3278 13.9657 65.4405 13.853 65.5532 13.853H69.8329C69.9457 13.853 70.0584 13.9657 70.0584 14.0784V18.8095Z" stroke="#130F26"/>
<mask id="path-2-inside-1_42_216" fill="white">
<path fill-rule="evenodd" clip-rule="evenodd" d="M57.1623 17.8519C57.1623 18.7533 57.8382 19.4851 58.7401 19.4851C59.1731 19.4849 59.5882 19.3127 59.8943 19.0064C60.2004 18.7002 60.3724 18.2849 60.3724 17.8519H60.3169H60.3724L60.3169 8.44752C60.3169 7.65886 60.486 7.26476 61.3865 6.70156C61.3865 6.75792 67.6944 3.54783 67.6944 3.54783C67.6944 3.54783 73.945 6.75792 73.945 6.70156C74.8464 7.26476 74.7901 7.65886 74.7901 8.39115V17.8523C74.7901 18.7537 75.5215 19.4856 76.3669 19.4856C76.8 19.4853 77.2153 19.3132 77.5215 19.0069C77.8278 18.7007 77.9999 18.2854 78.0002 17.8523V6.19517C78.0002 5.40652 77.4365 5.01241 76.7615 4.61786L67.5817 0L58.4019 4.61786C57.6696 5.01241 57.1059 5.40652 57.1623 6.19517V17.8519ZM32.4393 1.74551C32.4391 1.31243 32.2669 0.897143 31.9607 0.590904C31.6544 0.284665 31.2392 0.112519 30.8061 0.112284C30.373 0.112519 29.9577 0.284665 29.6515 0.590904C29.3452 0.897143 29.1731 1.31243 29.1729 1.74551V17.8519C29.1828 18.2785 29.3592 18.6842 29.6644 18.9824C29.9696 19.2806 30.3794 19.4475 30.8061 19.4475C31.2328 19.4475 31.6425 19.2806 31.9477 18.9824C32.2529 18.6842 32.4294 18.2785 32.4393 17.8519V1.74551V1.74551ZM53.7272 0.0559201H37.9022C37.0008 0.0559201 36.3253 0.78821 36.3253 1.68915C36.3253 2.53372 37.0008 3.26601 37.9022 3.26601H44.2092V17.8519C44.2092 18.7533 44.9415 19.4851 45.8424 19.4851C46.7438 19.4851 47.4202 18.7537 47.4202 17.8519V3.26601H53.7272C54.5722 3.26601 55.3041 2.53372 55.3041 1.68915C55.3036 0.787766 54.5722 0.0559201 53.7272 0.0559201Z"/>
</mask>
<path fill-rule="evenodd" clip-rule="evenodd" d="M57.1623 17.8519C57.1623 18.7533 57.8382 19.4851 58.7401 19.4851C59.1731 19.4849 59.5882 19.3127 59.8943 19.0064C60.2004 18.7002 60.3724 18.2849 60.3724 17.8519H60.3169H60.3724L60.3169 8.44752C60.3169 7.65886 60.486 7.26476 61.3865 6.70156C61.3865 6.75792 67.6944 3.54783 67.6944 3.54783C67.6944 3.54783 73.945 6.75792 73.945 6.70156C74.8464 7.26476 74.7901 7.65886 74.7901 8.39115V17.8523C74.7901 18.7537 75.5215 19.4856 76.3669 19.4856C76.8 19.4853 77.2153 19.3132 77.5215 19.0069C77.8278 18.7007 77.9999 18.2854 78.0002 17.8523V6.19517C78.0002 5.40652 77.4365 5.01241 76.7615 4.61786L67.5817 0L58.4019 4.61786C57.6696 5.01241 57.1059 5.40652 57.1623 6.19517V17.8519ZM32.4393 1.74551C32.4391 1.31243 32.2669 0.897143 31.9607 0.590904C31.6544 0.284665 31.2392 0.112519 30.8061 0.112284C30.373 0.112519 29.9577 0.284665 29.6515 0.590904C29.3452 0.897143 29.1731 1.31243 29.1729 1.74551V17.8519C29.1828 18.2785 29.3592 18.6842 29.6644 18.9824C29.9696 19.2806 30.3794 19.4475 30.8061 19.4475C31.2328 19.4475 31.6425 19.2806 31.9477 18.9824C32.2529 18.6842 32.4294 18.2785 32.4393 17.8519V1.74551V1.74551ZM53.7272 0.0559201H37.9022C37.0008 0.0559201 36.3253 0.78821 36.3253 1.68915C36.3253 2.53372 37.0008 3.26601 37.9022 3.26601H44.2092V17.8519C44.2092 18.7533 44.9415 19.4851 45.8424 19.4851C46.7438 19.4851 47.4202 18.7537 47.4202 17.8519V3.26601H53.7272C54.5722 3.26601 55.3041 2.53372 55.3041 1.68915C55.3036 0.787766 54.5722 0.0559201 53.7272 0.0559201Z" fill="#130F26"/>
<path d="M58.7401 19.4851V29.4851L58.7455 29.4851L58.7401 19.4851ZM60.3724 17.8519L70.3724 17.8519V7.85189H60.3724V17.8519ZM60.3724 17.8519V27.8519H70.4316L70.3722 17.7929L60.3724 17.8519ZM60.3169 8.44752H50.3169V8.47701L50.3171 8.50651L60.3169 8.44752ZM61.3865 6.70156H71.3865V-11.3475L56.0839 -1.77678L61.3865 6.70156ZM67.6944 3.54783L72.2628 -5.34766L67.7151 -7.68316L63.1589 -5.36449L67.6944 3.54783ZM73.945 6.70156L79.2439 -1.77913L63.945 -11.3381V6.70156H73.945ZM76.3669 19.4856V29.4856L76.3724 29.4856L76.3669 19.4856ZM78.0002 17.8523L88.0002 17.8578V17.8523H78.0002ZM76.7615 4.61786L81.8076 -4.0156L81.5362 -4.17423L81.2554 -4.3155L76.7615 4.61786ZM67.5817 0L72.0756 -8.93336L67.5817 -11.194L63.0878 -8.93336L67.5817 0ZM58.4019 4.61786L53.908 -4.3155L53.7824 -4.25233L53.6586 -4.18565L58.4019 4.61786ZM57.1623 6.19517H67.1623V5.83828L67.1369 5.4823L57.1623 6.19517ZM30.8061 0.112284L30.8115 -9.88772L30.8006 -9.88771L30.8061 0.112284ZM29.1729 1.74551L19.1729 1.74008V1.74551H29.1729ZM29.1729 17.8519H19.1729V17.9684L19.1756 18.085L29.1729 17.8519ZM32.4393 17.8519L42.4366 18.085L42.4393 17.9684V17.8519H32.4393ZM44.2092 3.26601H54.2092V-6.73399H44.2092V3.26601ZM47.4202 3.26601V-6.73399H37.4202V3.26601H47.4202ZM55.3041 1.68915H65.3041L65.3041 1.68422L55.3041 1.68915ZM47.1623 17.8519C47.1623 23.816 51.8662 29.4851 58.7401 29.4851V9.48512C63.8102 9.48512 67.1623 13.6905 67.1623 17.8519H47.1623ZM58.7455 29.4851C61.8297 29.4834 64.787 28.2571 66.9673 26.0756L52.8214 11.9373C54.3895 10.3683 56.5164 9.48633 58.7346 9.48512L58.7455 29.4851ZM66.9673 26.0756C69.1477 23.8941 70.3724 20.9361 70.3724 17.8519L50.3724 17.8519C50.3724 15.6337 51.2532 13.5063 52.8214 11.9373L66.9673 26.0756ZM60.3724 7.85189H60.3169V27.8519H60.3724V7.85189ZM60.3169 27.8519H60.3724V7.85189H60.3169V27.8519ZM70.3722 17.7929L70.3167 8.38853L50.3171 8.50651L50.3726 17.9109L70.3722 17.7929ZM70.3169 8.44752C70.3169 8.65782 70.334 10.4863 69.1688 12.4994C68.0985 14.3486 66.7111 15.1661 66.6891 15.1799L56.0839 -1.77678C55.1614 -1.19982 53.2392 0.0963646 51.8592 2.48054C50.3843 5.02868 50.3169 7.44856 50.3169 8.44752H70.3169ZM51.3865 6.70156C51.3865 10.2734 53.267 13.4046 56.0541 15.1616C58.1553 16.4861 60.1448 16.6467 60.8036 16.6852C62.2873 16.772 63.439 16.4914 63.6088 16.4528C64.2853 16.299 64.8009 16.1034 64.878 16.0749C65.1911 15.9589 65.4401 15.8483 65.4992 15.8222C65.686 15.7396 65.8629 15.6557 65.9674 15.6058C66.2077 15.491 66.507 15.344 66.8119 15.1929C67.4366 14.8834 68.2511 14.4743 69.0442 14.0742C69.8423 13.6716 70.6384 13.2683 71.2337 12.9662C71.5317 12.815 71.7802 12.6888 71.9543 12.6003C72.0414 12.556 72.11 12.5211 72.1569 12.4973C72.1804 12.4853 72.1985 12.4761 72.2108 12.4699C72.2169 12.4667 72.2216 12.4644 72.2248 12.4627C72.2264 12.4619 72.2276 12.4613 72.2285 12.4609C72.2289 12.4606 72.2292 12.4605 72.2295 12.4604C72.2296 12.4603 72.2297 12.4602 72.2297 12.4602C72.2298 12.4602 72.2299 12.4601 67.6944 3.54783C63.1589 -5.36449 63.1589 -5.36449 63.1589 -5.36448C63.1589 -5.36446 63.1588 -5.36444 63.1588 -5.3644C63.1586 -5.36433 63.1584 -5.3642 63.158 -5.36403C63.1573 -5.36368 63.1563 -5.36314 63.1548 -5.36241C63.152 -5.36096 63.1476 -5.35874 63.1418 -5.3558C63.1303 -5.3499 63.1129 -5.34108 63.0902 -5.32952C63.0447 -5.3064 62.9778 -5.27236 62.8924 -5.22896C62.7216 -5.14215 62.4772 -5.01801 62.1839 -4.86915C61.5964 -4.57108 60.8156 -4.17545 60.0367 -3.78255C59.2528 -3.38715 58.4904 -3.00432 57.9323 -2.72778C57.6458 -2.58585 57.4523 -2.49134 57.3476 -2.44134C57.2797 -2.40888 57.3211 -2.42961 57.4155 -2.47135C57.4284 -2.47703 57.6419 -2.57278 57.9312 -2.67992C57.9964 -2.70406 58.5029 -2.89667 59.1734 -3.04916C59.375 -3.09502 59.6896 -3.16016 60.0793 -3.21164C60.4233 -3.2571 61.1076 -3.3312 61.9717 -3.28064C62.374 -3.24894 63.2924 -3.11461 63.8045 -3.0012C64.4657 -2.8121 65.9345 -2.20401 66.7194 -1.75742C67.6489 -1.09448 69.3682 0.677422 70.098 1.79156C70.6825 3.0161 71.3136 5.4963 71.3865 6.70156H51.3865ZM67.6944 3.54783C63.126 12.4433 63.1261 12.4434 63.1261 12.4434C63.1262 12.4434 63.1263 12.4435 63.1264 12.4435C63.1267 12.4437 63.127 12.4438 63.1274 12.444C63.1282 12.4445 63.1295 12.4451 63.131 12.4459C63.1342 12.4475 63.1389 12.4499 63.145 12.4531C63.1571 12.4593 63.1751 12.4685 63.1983 12.4805C63.2449 12.5043 63.3128 12.5392 63.3991 12.5835C63.5717 12.672 63.8179 12.7982 64.1133 12.9495C64.7032 13.2515 65.4922 13.655 66.2832 14.0576C67.0691 14.4577 67.8766 14.867 68.496 15.1767C68.7983 15.3279 69.0955 15.4752 69.3345 15.5904C69.4383 15.6404 69.615 15.7251 69.8021 15.8085C69.8611 15.8348 70.1111 15.9468 70.4258 16.0645C70.503 16.0933 71.022 16.292 71.7035 16.4484C71.8741 16.4876 73.036 16.7733 74.5333 16.6849C75.2015 16.6455 77.2037 16.4809 79.3122 15.1395C82.1037 13.3637 83.945 10.2312 83.945 6.70156H63.945C64.0167 5.50677 64.638 3.04401 65.2145 1.82549C65.938 0.711193 67.6489 -1.06723 68.5773 -1.73537C69.3647 -2.18739 70.8406 -2.80389 71.5062 -2.99599C72.0225 -3.11135 72.9486 -3.24805 73.3545 -3.28033C74.2266 -3.33181 74.9171 -3.25634 75.2641 -3.21008C75.6571 -3.15767 75.9743 -3.09138 76.1775 -3.04475C76.853 -2.8897 77.3631 -2.69395 77.4284 -2.66953C77.7195 -2.56074 77.9344 -2.4635 77.9476 -2.45764C78.0431 -2.41504 78.0855 -2.3936 78.0184 -2.42596C77.9156 -2.47553 77.7245 -2.5697 77.4408 -2.71158C76.8882 -2.9879 76.133 -3.37056 75.3563 -3.76594C74.5846 -4.15877 73.8109 -4.55436 73.2289 -4.8524C72.9382 -5.00124 72.6961 -5.12537 72.5268 -5.21217C72.4422 -5.25556 72.3759 -5.2896 72.3309 -5.31271C72.3084 -5.32427 72.2912 -5.33309 72.2797 -5.33898C72.274 -5.34193 72.2696 -5.34414 72.2668 -5.3456C72.2654 -5.34632 72.2643 -5.34686 72.2637 -5.34721C72.2633 -5.34738 72.2631 -5.34751 72.2629 -5.34758C72.2629 -5.34762 72.2628 -5.34764 72.2628 -5.34766C72.2628 -5.34767 72.2628 -5.34766 67.6944 3.54783ZM68.6462 15.1822C68.2173 14.9143 66.3558 13.6721 65.3531 11.0228C64.9153 9.86617 64.8269 8.90483 64.8022 8.4881C64.7879 8.245 64.7901 7.88372 64.7901 8.39115H84.7901C84.7901 8.37268 84.7902 8.35367 84.7904 8.30225C84.7906 8.26072 84.7909 8.1857 84.7907 8.10464C84.7903 7.94967 84.788 7.65648 84.7673 7.30674C84.7251 6.59255 84.5944 5.36018 84.0581 3.94311C82.8582 0.772852 80.5742 -0.947971 79.2439 -1.77913L68.6462 15.1822ZM64.7901 8.39115V17.8523H84.7901V8.39115H64.7901ZM64.7901 17.8523C64.7901 24.046 69.7708 29.4856 76.3669 29.4856V9.48556C81.2721 9.48556 84.7901 13.4615 84.7901 17.8523H64.7901ZM76.3724 29.4856C79.4557 29.4839 82.4123 28.2583 84.5926 26.078L70.4505 11.9359C72.0183 10.3681 74.1443 9.48677 76.3615 9.48557L76.3724 29.4856ZM84.5926 26.078C86.7728 23.8978 87.9985 20.9412 88.0002 17.8578L68.0002 17.8469C68.0014 15.6296 68.8827 13.5036 70.4505 11.9359L84.5926 26.078ZM88.0002 17.8523V6.19517H68.0002V17.8523H88.0002ZM88.0002 6.19517C88.0002 -0.853227 82.1025 -3.84325 81.8076 -4.0156L71.7154 13.2513C72.0675 13.4572 71.1603 12.9981 70.2535 12.0062C69.713 11.415 69.1071 10.5781 68.6541 9.47746C68.1936 8.35856 68.0002 7.23083 68.0002 6.19517H88.0002ZM81.2554 -4.3155L72.0756 -8.93336L63.0878 8.93336L72.2676 13.5512L81.2554 -4.3155ZM63.0878 -8.93336L53.908 -4.3155L62.8958 13.5512L72.0756 8.93336L63.0878 -8.93336ZM53.6586 -4.18565C53.2689 -3.97569 51.5833 -3.10401 50.1075 -1.49054C48.1892 0.606737 46.9476 3.54784 47.1877 6.90804L67.1369 5.4823C67.2146 6.57009 67.0901 7.82368 66.6203 9.10782C66.1565 10.3751 65.4799 11.336 64.8652 12.008C63.8402 13.1286 62.8025 13.606 63.1451 13.4214L53.6586 -4.18565ZM47.1623 6.19517V17.8519H67.1623V6.19517H47.1623ZM42.4393 1.74008C42.4376 -1.34327 41.212 -4.29988 39.0318 -6.48016L24.8896 7.66197C23.3218 6.09416 22.4405 3.96812 22.4393 1.75094L42.4393 1.74008ZM39.0318 -6.48016C36.8515 -8.66045 33.8949 -9.88604 30.8115 -9.88771L30.8006 10.1123C28.5835 10.1111 26.4574 9.22978 24.8896 7.66197L39.0318 -6.48016ZM30.8006 -9.88771C27.7173 -9.88604 24.7607 -8.66045 22.5804 -6.48016L36.7225 7.66197C35.1547 9.22978 33.0287 10.1111 30.8115 10.1123L30.8006 -9.88771ZM22.5804 -6.48016C20.4001 -4.29988 19.1745 -1.34327 19.1729 1.74008L39.1728 1.75094C39.1716 3.96812 38.2903 6.09416 36.7225 7.66197L22.5804 -6.48016ZM19.1729 1.74551V17.8519H39.1729V1.74551H19.1729ZM19.1756 18.085C19.2464 21.1226 20.5028 24.012 22.6763 26.1354L36.6526 11.8294C38.2156 13.3564 39.1192 15.4343 39.1701 17.6188L19.1756 18.085ZM22.6763 26.1354C24.8497 28.2587 27.7676 29.4475 30.8061 29.4475V9.44748C32.9912 9.44748 35.0896 10.3024 36.6526 11.8294L22.6763 26.1354ZM30.8061 29.4475C33.8446 29.4475 36.7625 28.2587 38.9359 26.1354L24.9595 11.8294C26.5226 10.3024 28.621 9.44748 30.8061 9.44748V29.4475ZM38.9359 26.1354C41.1093 24.012 42.3658 21.1226 42.4366 18.085L22.442 17.6188C22.493 15.4343 23.3965 13.3564 24.9595 11.8294L38.9359 26.1354ZM42.4393 17.8519V1.74551H22.4393V17.8519H42.4393ZM53.7272 -9.94408H37.9022V10.0559H53.7272V-9.94408ZM37.9022 -9.94408C31.0216 -9.94408 26.3253 -4.267 26.3253 1.68915H46.3253C46.3253 5.84342 42.98 10.0559 37.9022 10.0559V-9.94408ZM26.3253 1.68915C26.3253 7.8203 31.2446 13.266 37.9022 13.266V-6.73399C42.757 -6.73399 46.3253 -2.75285 46.3253 1.68915H26.3253ZM37.9022 13.266H44.2092V-6.73399H37.9022V13.266ZM34.2092 3.26601V17.8519H54.2092V3.26601H34.2092ZM34.2092 17.8519C34.2092 24.2779 39.4204 29.4851 45.8424 29.4851V9.48512C50.4626 9.48512 54.2092 13.2287 54.2092 17.8519H34.2092ZM45.8424 29.4851C52.7123 29.4851 57.4202 23.8201 57.4202 17.8519H37.4202C37.4202 13.6873 40.7753 9.48512 45.8424 9.48512V29.4851ZM57.4202 17.8519V3.26601H37.4202V17.8519H57.4202ZM47.4202 13.266H53.7272V-6.73399H47.4202V13.266ZM53.7272 13.266C60.0969 13.266 65.3041 8.05473 65.3041 1.68915H45.3041C45.3041 -2.98728 49.0475 -6.73399 53.7272 -6.73399V13.266ZM65.3041 1.68422C65.301 -4.50283 60.3255 -9.94408 53.7272 -9.94408V10.0559C48.8189 10.0559 45.3062 6.07836 45.3041 1.69407L65.3041 1.68422Z" fill="#130F26" mask="url(#path-2-inside-1_42_216)"/>
</svg>
