<svg width="106" height="27" viewBox="0 0 106 27" fill="none" xmlns="http://www.w3.org/2000/svg">
<path d="M22.5142 17.3406L22.9782 18.2265L22.9885 18.221C23.5549 17.9158 24.0166 17.5635 24.3103 17.08C24.6131 16.5816 24.6554 16.0772 24.6554 15.6677V2.58511C24.6554 1.84399 25.2715 1.22766 26.0123 1.22766C26.7327 1.22766 27.3703 1.82407 27.3703 2.66183V18.2974C27.3422 18.6903 27.2132 18.9237 27.0359 19.1163C26.8226 19.3479 26.5197 19.544 26.0645 19.8103L14.2204 25.8778L2.2383 19.8145C1.75257 19.5141 1.44831 19.3025 1.25027 19.0804C1.08847 18.8989 1 18.7137 1 18.4057V2.66063C1 1.86497 1.5961 1.30259 2.35805 1.30259C3.12 1.30259 3.7161 1.86497 3.7161 2.66063V15.7432C3.7161 16.1584 3.75996 16.649 4.0696 17.1407C4.35584 17.5952 4.80117 17.9403 5.3322 18.2675L5.378 18.2957L5.42643 18.3188L5.42645 18.3188L5.42648 18.3188L5.42657 18.3189L5.42693 18.319L5.42974 18.3204L5.44302 18.3268L5.50243 18.3554C5.55749 18.3821 5.6445 18.4245 5.77034 18.4862C6.02205 18.6098 6.42865 18.8108 7.04492 19.1189C8.27755 19.7353 10.3475 20.7797 13.6925 22.4897L14.1452 22.7212L14.5989 22.4918C17.9843 20.7803 20.0774 19.7149 21.3246 19.0771C21.9483 18.7581 22.3607 18.546 22.6175 18.4134C22.746 18.3471 22.8356 18.3006 22.8934 18.2706L22.957 18.2375L22.9726 18.2294L22.9766 18.2273L22.9777 18.2267L22.978 18.2265L22.9781 18.2265L22.5142 17.3406ZM93.6193 19.7096V24.7083H89.2302V19.7096H93.6193Z" fill="white" stroke="white" stroke-width="2"/>
<path d="M79.3386 7.1237C78.8536 7.38559 78.5557 7.58276 78.3778 7.77725C78.2427 7.92498 78.1829 8.05979 78.1998 8.29577L78.2023 8.33137V8.36706V24.1104C78.2023 24.8213 78.7121 25.3159 79.3326 25.3162L79.3386 7.1237ZM79.3386 7.1237L91.2745 1.1194L103.195 7.1158C103.637 7.3753 103.926 7.57219 104.113 7.77707C104.269 7.94737 104.345 8.11227 104.345 8.36706V24.1104C104.345 24.4303 104.218 24.737 103.992 24.9632C103.766 25.1894 103.459 25.3166 103.139 25.3168L79.3386 7.1237ZM98.8687 7.459V7.24701L100.399 8.20291C101.095 8.63818 101.588 9.10956 101.831 9.75231C102.02 10.2525 102.015 10.7912 102.011 11.183C102.01 11.2358 102.01 11.2859 102.01 11.3329V24.111C102.01 24.7989 102.572 25.3164 103.139 25.3168L98.8687 7.459ZM98.8687 7.459C98.0966 7.07222 97.1 6.567 96.1014 6.05867C95.0471 5.52198 93.9926 4.98282 93.2016 4.57776C92.8061 4.37525 92.4765 4.20629 92.2459 4.08798L91.9782 3.95063L91.9077 3.91445L91.8896 3.90519L91.8851 3.90285L91.8839 3.90226L91.8837 3.90212C91.8836 3.90209 91.8836 3.90207 91.4267 4.79162M98.8687 7.459L79.3328 25.3162C79.6524 25.316 79.9589 25.1888 80.1848 24.9628C80.4103 24.7372 80.5372 24.4315 80.5378 24.1127C80.5378 24.1119 80.5378 24.1111 80.5378 24.1104L80.4629 11.4149L80.4628 11.409C80.4629 10.816 80.5225 10.2042 80.8636 9.61487C81.1952 9.04191 81.7218 8.613 82.3772 8.20314L83.9074 7.24607V7.46557C84.6889 7.07773 85.7018 6.56894 86.7167 6.05701C87.7807 5.52031 88.8448 4.98114 89.6431 4.57608C90.0422 4.37357 90.3748 4.20461 90.6076 4.0863L90.8777 3.94895L90.9488 3.91277L90.9671 3.90351L90.9717 3.90117L90.9728 3.90058L90.9731 3.90044C90.9731 3.9004 90.9732 3.90039 91.4267 4.79162M91.4267 4.79162L91.8836 3.90207L91.4288 3.66852L90.9732 3.90039L91.4267 4.79162ZM60.7081 3.411V4.411V24.1104C60.7081 24.7753 61.2493 25.3162 61.9139 25.3162C62.5345 25.3162 63.0448 24.8217 63.0448 24.1104V4.411V3.411H64.0448H72.5629C73.1516 3.411 73.6923 2.87019 73.6926 2.28182L60.7081 3.411ZM60.7081 3.411H59.7081M60.7081 3.411H59.7081M59.7081 3.411H51.19C50.5483 3.411 50.0604 2.89333 50.0604 2.28133C50.0604 1.57006 50.5706 1.07552 51.19 1.07552H72.5629M59.7081 3.411L72.5629 1.07552M72.5629 1.07552C73.1288 1.07552 73.6922 1.59293 73.6926 2.28169L72.5629 1.07552ZM42.4585 1.50517C42.6845 1.73123 42.8117 2.03775 42.812 2.35745C42.812 2.35751 42.812 2.35758 42.812 2.35765C42.812 2.35776 42.812 2.35788 42.812 2.35799L42.812 24.097C42.8022 24.4083 42.6723 24.704 42.4492 24.9219C42.2239 25.1421 41.9213 25.2653 41.6062 25.2653C41.2911 25.2653 40.9885 25.1421 40.7631 24.9219C40.5401 24.704 40.4102 24.4083 40.4004 24.097V2.3578C40.4006 2.03798 40.5278 1.73132 40.7539 1.50517C40.98 1.2791 41.2865 1.15197 41.6062 1.15165C41.9259 1.15197 42.2324 1.2791 42.4585 1.50517Z" fill="white" stroke="white" stroke-width="2"/>
</svg>
